<svg width="19" height="19" xmlns="http://www.w3.org/2000/svg" xmlns:xlink="http://www.w3.org/1999/xlink" xml:space="preserve" overflow="hidden"><style>
.MsftOfcThm_Accent3_Fill_v2 {
 fill:#FFFFFF; 
}
</style>
<g><path d="M5.29532 4.90324 12.1568 14.0755 13.7105 14.0755 6.84905 4.90324Z" class="MsftOfcThm_Accent3_Fill_v2" fill="#FFFFFF"/><path d="M15.1931 0.104395 3.78559 0.104395C1.75239 0.104395 0.104395 1.75239 0.104395 3.78559L0.104395 15.1933C0.104395 17.2263 1.75239 18.8743 3.78559 18.8743L15.1933 18.8743C17.2263 18.8743 18.8743 17.2263 18.8743 15.1931L18.8743 3.78559C18.8743 1.75239 17.2263 0.104395 15.1931 0.104395ZM11.7901 14.8083 8.6664 10.6316 4.80021 14.8083 3.80645 14.8083 8.22239 10.0379 3.83419 4.17038 7.21632 4.17038 10.0931 8.01696 13.6536 4.17038 14.6473 4.17038 10.5371 8.61092 15.1723 14.8083 11.7901 14.8083Z" class="MsftOfcThm_Accent3_Fill_v2" fill="#FFFFFF"/></g></svg>