<svg width="24" height="24" viewBox="0 0 24 24" xmlns="http://www.w3.org/2000/svg" xmlns:xlink="http://www.w3.org/1999/xlink" overflow="hidden"><style>
.MsftOfcThm_Accent3_Fill_v2 {
 fill:#FFFFFF; 
}
</style>
<path d="M19 0 5 0C2.239 0 0 2.239 0 5L0 19C0 21.761 2.239 24 5 24L19 24C21.762 24 24 21.761 24 19L24 5C24 2.239 21.762 0 19 0ZM8 19 5 19 5 8 8 8 8 19ZM6.5 6.732C5.534 6.732 4.75 5.942 4.75 4.968 4.75 3.994 5.534 3.204 6.5 3.204 7.466 3.204 8.25 3.994 8.25 4.968 8.25 5.942 7.467 6.732 6.5 6.732ZM20 19 17 19 17 13.396C17 10.028 13 10.283 13 13.396L13 19 10 19 10 8 13 8 13 9.765C14.396 7.179 20 6.988 20 12.241L20 19Z" class="MsftOfcThm_Accent3_Fill_v2" fill="#FFFFFF"/></svg>