<svg width="24" height="24" viewBox="0 0 24 24" xmlns="http://www.w3.org/2000/svg" xmlns:xlink="http://www.w3.org/1999/xlink" overflow="hidden"><style>
.MsftOfcThm_Accent3_Fill_v2 {
 fill:#FFFFFF; 
}
</style>
<path d="M11.984 16.815C14.58 16.815 16.69 14.704 16.69 12.108 16.69 10.699 16.067 9.434 15.084 8.57 14.738 8.267 14.349 8.014 13.926 7.822 13.333 7.552 12.677 7.401 11.985 7.401 11.293 7.401 10.636 7.552 10.044 7.822 9.62 8.016 9.23 8.269 8.886 8.571 7.901 9.435 7.278 10.7 7.278 12.109 7.278 14.704 9.39 16.815 11.984 16.815ZM12 8.631C13.921 8.631 15.479 10.188 15.479 12.109 15.479 14.03 13.921 15.588 12 15.588 10.079 15.588 8.521 14.031 8.521 12.109 8.521 10.188 10.079 8.631 12 8.631ZM17.223 9 24 9 24 19.278C24 21.886 21.886 24 19.278 24L4.785 24C2.177 24-1.77636e-15 21.886-1.77636e-15 19.278L-1.77636e-15 9 6.747 9C6.203 9.913 5.875 10.969 5.875 12.109 5.875 15.483 8.61 18.218 11.984 18.218 15.358 18.218 18.093 15.483 18.093 12.109 18.094 10.969 17.766 9.913 17.223 9ZM19.278 1.77636e-15 7 1.77636e-15 7 5 6 5 6 1.77636e-15 5 1.77636e-15 5 5 4 5 4 0.077C3.654 0.134 3.318 0.22 3 0.347L3 5 2 5 2 0.898C0.798 1.755-1.77636e-15 3.144-1.77636e-15 4.722L-1.77636e-15 8 7.473 8C8.64 6.718 10.271 6 11.984 6 13.706 6 15.335 6.725 16.495 8L24 8 24 4.722C24 2.114 21.886 8.88178e-16 19.278 8.88178e-16ZM22 5.265C22 5.671 21.667 6 21.255 6L18.744 6C18.333 6 18 5.671 18 5.265L18 2.735C18 2.329 18.333 2 18.744 2L21.255 2C21.667 2 22 2.329 22 2.735L22 5.265Z" class="MsftOfcThm_Accent3_Fill_v2" fill="#FFFFFF"/></svg>